<?xml version="1.0" encoding="iso-8859-1"?>
<!-- Generator: Adobe Illustrator 19.0.0, SVG Export Plug-In . SVG Version: 6.00 Build 0)  -->
<svg version="1.1" id="Capa_1" xmlns="http://www.w3.org/2000/svg" xmlns:xlink="http://www.w3.org/1999/xlink" x="0px" y="0px"
	 viewBox="0 0 512 512" style="enable-background:new 0 0 512 512;" xml:space="preserve">
<circle style="fill:#008FF9;" cx="256" cy="256" r="256"/>
<path style="fill:#005FF7;" d="M220.452,297.571l173.872,173.872C465.112,425.901,512,346.427,512,256
	c0-8.033-0.389-15.975-1.113-23.819L347.207,68.5L220.452,297.571z"/>
<polygon style="fill:#F42727;" points="162.358,98.333 149,262 363,262 349.642,98.333 "/>
<polygon style="fill:#D30F0F;" points="349.642,98.333 256,98.333 256,262 363,262 "/>
<polygon style="fill:#FFF764;" points="347.207,68.5 164.793,68.5 162.358,98.333 349.642,98.333 "/>
<g>
	<polygon style="fill:#FFDA00;" points="347.207,68.5 256,68.5 256,98.333 349.642,98.333 	"/>
	<polygon style="fill:#FFDA00;" points="391.5,317.333 120.5,317.333 140.5,123.833 371.5,123.833 	"/>
</g>
<polygon style="fill:#FFB600;" points="371.5,123.833 256,123.833 256,317.333 391.5,317.333 "/>
<polygon style="fill:#87C7FF;" points="246.754,218.167 144.5,218.167 152.5,148.167 246.754,148.167 "/>
<polygon style="fill:#65B1FC;" points="367.5,218.167 265.246,218.167 265.246,148.167 361.5,148.167 "/>
<polygon style="fill:#FFFFFF;" points="384.872,422.459 127.128,422.459 77,259.707 256,199.707 435,259.707 "/>
<polygon style="fill:#F7F7F7;" points="255.571,422.459 384.872,422.459 435,259.707 256,199.707 "/>
<path style="fill:#87C7FF;" d="M499.883,334c-24.392,0-24.392,22.431-48.783,22.431c-24.392,0-24.392-22.431-48.783-22.431
	c-24.388,0-24.388,22.431-48.776,22.431c-24.389,0-24.389-22.431-48.778-22.431c-24.388,0-24.388,22.431-48.776,22.431
	C231.6,356.431,231.6,334,207.212,334c-24.385,0-24.385,22.431-48.769,22.431c-24.387,0-24.387-22.431-48.774-22.431
	c-24.388,0-24.388,22.431-48.776,22.431S36.505,334,12.117,334C45.109,437.238,141.817,512,256,512S466.891,437.238,499.883,334z"/>
<path style="fill:#65B1FC;" d="M451.1,356.431c-24.392,0-24.392-22.431-48.783-22.431c-24.388,0-24.388,22.431-48.776,22.431
	c-24.389,0-24.389-22.431-48.778-22.431c-24.388,0-24.388,22.431-48.776,22.431c-0.143,0-0.274-0.01-0.415-0.012v155.576
	c0.143,0,0.286,0.004,0.429,0.004c114.183,0,210.891-74.762,243.883-178C475.491,334,475.491,356.431,451.1,356.431z"/>
<g>
</g>
<g>
</g>
<g>
</g>
<g>
</g>
<g>
</g>
<g>
</g>
<g>
</g>
<g>
</g>
<g>
</g>
<g>
</g>
<g>
</g>
<g>
</g>
<g>
</g>
<g>
</g>
<g>
</g>
</svg>
